<?xml version="1.0" standalone="no"?>
<!DOCTYPE svg PUBLIC "-//W3C//DTD SVG 20010904//EN"
 "http://www.w3.org/TR/2001/REC-SVG-20010904/DTD/svg10.dtd">
<svg version="1.0" xmlns="http://www.w3.org/2000/svg"
 width="260.000000pt" height="260.000000pt" viewBox="0 0 260.000000 260.000000"
 preserveAspectRatio="xMidYMid meet">
<metadata>
Created by potrace 1.14, written by Peter Selinger 2001-2017
</metadata>
<g transform="translate(0.000000,260.000000) scale(0.100000,-0.100000)"
fill="#000000" stroke="none">
<path d="M1836 1883 c-3 -4 -27 -9 -52 -11 -25 -2 -66 -12 -90 -22 -24 -11
-44 -17 -44 -14 0 2 -13 -9 -29 -25 -16 -16 -32 -28 -35 -25 -3 2 -4 1 -1 -2
2 -4 -4 -19 -15 -33 -10 -15 -22 -39 -25 -54 -4 -15 -10 -27 -14 -27 -4 0 -7
-8 -8 -17 -1 -10 -2 -27 -3 -38 -3 -31 7 -86 17 -96 5 -5 25 -12 44 -15 44 -7
88 31 91 79 0 18 2 37 2 42 2 15 43 66 52 65 4 -1 10 3 14 9 13 22 265 33 395
18 22 -2 50 -5 63 -6 13 0 20 -5 17 -11 -3 -5 0 -7 8 -4 15 5 70 -44 62 -56
-3 -5 0 -10 5 -12 6 -2 12 -19 14 -39 2 -20 6 -41 10 -48 4 -6 5 -15 1 -20 -3
-5 -1 -12 5 -16 7 -4 7 -12 0 -25 -6 -10 -7 -21 -2 -24 4 -2 6 -24 4 -48 -2
-24 -3 -49 -3 -55 1 -38 1 -63 -1 -111 -2 -28 0 -52 4 -52 4 0 3 -11 -2 -25
-5 -13 -6 -26 -2 -29 13 -8 -4 -163 -21 -184 -5 -7 -7 -15 -4 -19 7 -7 -24
-49 -37 -50 -5 -1 -12 -6 -16 -12 -8 -13 -40 -23 -90 -27 -19 -1 -35 -3 -35
-5 0 -7 -252 -5 -262 2 -7 7 -14 6 -18 -1 -3 -6 -11 -8 -16 -5 -8 6 -27 11
-66 19 -22 4 -58 40 -71 69 -7 15 -12 66 -12 113 l0 84 53 0 c28 0 61 0 72 0
47 0 74 21 83 64 4 22 4 43 0 44 -4 2 -8 10 -8 18 0 14 -91 46 -100 35 -6 -8
-37 -8 -45 0 -3 4 -24 3 -48 -1 -23 -5 -49 -4 -59 1 -9 5 -19 5 -22 0 -3 -4
-19 -11 -35 -14 -38 -8 -53 -52 -50 -150 1 -41 -1 -79 -5 -85 -3 -6 -2 -13 3
-16 5 -3 8 -19 7 -36 -1 -16 0 -30 3 -30 3 0 7 -17 9 -37 1 -21 7 -42 12 -47
6 -6 10 -18 10 -28 0 -10 5 -18 10 -18 6 0 10 -5 10 -10 0 -32 113 -110 170
-117 14 -2 37 -8 53 -13 15 -5 27 -5 27 0 0 5 12 5 28 1 15 -5 38 -4 50 0 14
5 31 5 40 0 9 -5 26 -5 39 0 14 5 23 5 23 -1 0 -6 9 -6 25 0 14 5 25 6 25 2 0
-16 153 2 209 24 18 8 38 11 45 7 6 -3 8 -3 4 2 -8 9 51 51 65 47 5 -1 6 2 3
7 -4 5 0 13 7 18 13 7 52 74 56 95 1 4 8 29 16 54 10 35 14 119 15 333 0 255
-2 294 -19 364 -19 71 -71 167 -92 167 -4 0 -14 6 -21 13 -24 22 -52 34 -108
46 -30 7 -68 16 -85 20 -16 4 -45 4 -62 0 -18 -3 -33 -4 -33 0 0 3 -24 5 -52
3 -114 -5 -135 -5 -145 1 -6 4 -13 3 -17 0z"/>
<path d="M547 1864 c-2 -3 -40 -6 -84 -9 -77 -4 -100 -10 -172 -44 -40 -19
-101 -73 -101 -90 0 -6 -4 -11 -9 -11 -9 0 -10 -4 -36 -100 -19 -69 -23 -626
-5 -660 6 -11 7 -20 1 -20 -5 0 -1 -18 10 -40 10 -21 19 -43 19 -47 0 -13 81
-97 112 -116 15 -9 34 -17 43 -17 9 0 13 -4 10 -10 -3 -5 0 -8 7 -5 7 3 37 -1
66 -8 28 -8 52 -10 52 -6 0 5 11 4 25 -1 15 -6 26 -6 30 0 4 6 13 7 24 1 10
-6 23 -6 31 -1 8 5 22 4 32 -1 12 -6 18 -6 18 0 0 6 11 6 30 1 17 -5 30 -5 30
0 0 5 13 5 28 0 16 -4 35 -4 43 1 8 4 21 4 28 0 12 -8 26 -5 104 19 17 6 36
12 42 13 21 5 105 82 105 97 0 6 5 8 12 4 7 -4 8 -3 4 5 -4 6 -3 17 2 24 10
12 23 64 28 107 1 14 3 27 4 30 4 9 2 72 -3 76 -3 3 -1 20 3 38 4 19 4 40 0
46 -4 7 -4 26 0 41 5 17 5 29 -1 29 -5 0 -9 8 -9 19 0 25 -23 30 -155 37 -60
3 -116 7 -122 9 -7 3 -13 0 -13 -5 0 -6 -8 -10 -18 -10 -21 0 -51 -47 -47 -75
7 -58 40 -75 146 -75 l69 0 0 -74 c0 -42 -5 -78 -10 -81 -8 -5 -8 -11 -1 -19
14 -16 -49 -86 -80 -90 -13 -2 -31 -6 -40 -10 -19 -8 -365 -3 -395 6 -45 13
-98 51 -87 62 4 3 1 6 -5 6 -6 0 -14 17 -18 38 -4 20 -10 43 -14 51 -4 7 -4
30 1 49 4 20 4 43 -1 51 -4 9 -5 35 0 59 4 23 4 44 0 47 -6 4 -6 45 0 53 7 7
5 29 -2 39 -5 6 -5 14 2 18 6 4 7 12 1 23 -5 10 -6 36 -1 60 4 23 4 44 0 47
-5 3 -6 50 0 50 0 0 3 20 5 44 2 25 10 56 17 70 16 32 58 79 58 66 0 -6 4 -5
8 2 4 7 25 16 47 21 58 12 341 15 363 3 13 -7 23 -6 30 1 9 9 12 9 12 0 0 -7
7 -12 15 -12 37 0 65 -33 85 -99 27 -87 31 -92 76 -98 31 -4 44 0 63 18 21 19
22 28 17 73 -9 66 -25 116 -44 139 -8 9 -11 17 -6 17 5 0 1 5 -9 11 -9 6 -14
16 -11 22 4 7 3 9 -1 4 -5 -4 -21 5 -37 20 -15 15 -28 23 -28 19 0 -5 -11 -1
-25 8 -13 9 -39 18 -57 20 -18 3 -33 5 -33 6 0 1 -20 4 -45 6 -25 3 -50 7 -57
9 -7 2 -15 0 -18 -4 -3 -5 -21 -5 -40 -1 -19 4 -37 4 -40 0 -3 -4 -20 -4 -39
0 -19 4 -37 6 -39 4z"/>
<path d="M1263 863 c-13 -2 -23 -11 -23 -19 0 -8 -4 -14 -10 -14 -5 0 -10 -24
-10 -53 0 -69 22 -97 76 -98 79 -1 102 13 110 67 14 96 -37 137 -143 117z"/>
</g>
</svg>
